<?xml version="1.0" encoding="utf-8"?>
<!-- Generator: Adobe Illustrator 26.1.0, SVG Export Plug-In . SVG Version: 6.00 Build 0)  -->
<svg version="1.1" id="Layer_1" xmlns="http://www.w3.org/2000/svg" xmlns:xlink="http://www.w3.org/1999/xlink" x="0px" y="0px"
	 viewBox="0 0 529.47 160.49" style="enable-background:new 0 0 529.47 160.49;" xml:space="preserve">
<style type="text/css">
	.st0{fill:#0079EF;}
</style>
<polygon class="st0" points="180.18,40.53 124.37,40.53 124.37,40.53 124.36,40.53 92.99,96.04 61.62,40.53 46.74,40.53 
	93.02,122.42 131.94,53.53 180.18,53.53 "/>
<polygon class="st0" points="180.18,86.52 180.18,73.52 124.8,73.52 124.8,118.86 180.18,118.86 180.18,105.86 137.8,105.86 
	137.8,86.52 "/>
<rect x="284.57" y="73.19" transform="matrix(3.171844e-11 1 -1 3.171844e-11 403.4324 -244.0454)" class="st0" width="78.34" height="13"/>
<path class="st0" d="M312.18,40.53H245.8v0.23c4.08,3.3,7.23,7.71,9,12.77h17.69v65.34h13V53.53h26.69V40.53z"/>
<path class="st0" d="M242.55,118.86h13l-19.22-35.22c8.19-3.32,13.98-11.35,13.98-20.74c0-12.36-10.02-22.38-22.38-22.38h-29.38
	h-8.75h-4.25v78.34h13V85.28h25.67L242.55,118.86z M198.55,53.53h29.38c5.18,0,9.38,4.2,9.38,9.38s-4.2,9.37-9.38,9.37h-29.38V53.53
	z"/>
<path class="st0" d="M430.68,37.65h-0.05l-33.38,55.61l-0.03,0.05l0,0c-4.68,7.77-13.2,12.96-22.92,12.96
	c-14.77,0-26.75-11.98-26.75-26.75s11.98-26.75,26.75-26.75c9.09,0,17.12,4.54,21.95,11.47l7.02-11.7
	c-7.23-7.76-17.53-12.62-28.97-12.62c-21.87,0-39.6,17.73-39.6,39.6s17.73,39.6,39.6,39.6c14.43,0,27.05-7.72,33.97-19.25l0,0
	l22.3-37.16l33.81,56.33l15.04-0.19L430.68,37.65z"/>
</svg>
